<?xml version="1.0" encoding="utf-8"?> <!-- Generator: IcoMoon.io --> <!DOCTYPE svg PUBLIC "-//W3C//DTD SVG 1.1//EN" "http://www.w3.org/Graphics/SVG/1.1/DTD/svg11.dtd"> <svg width="32" height="32" viewBox="0 0 32 32" xmlns="http://www.w3.org/2000/svg" xmlns:xlink="http://www.w3.org/1999/xlink" fill="#ffffff"><g><path d="M 25.143,16q0-2.321 -0.911-4.438t-2.438-3.643t-3.643-2.438t-4.438-0.911t-4.438,0.911t-3.643,2.438t-2.438,3.643t-0.911,4.438q0,3.732 2.223,6.759t 5.777,4.134l0-3.018 q-0.964,0.125 -1.232,0.125q-1.964,0 -2.732-1.786q-0.268-0.679 -0.643-1.125q-0.089-0.107 -0.375-0.339t-0.509-0.429t-0.223-0.286q0-0.214 0.5-0.214q 0.518,0 0.92,0.259t 0.679,0.625 t 0.563,0.741t 0.723,0.634t 1.009,0.259q 0.75,0 1.446-0.25q 0.286-1.018 1.125-1.589q-2.964-0.286 -4.393-1.491t-1.429-4.009q0-2.107 1.304-3.536q-0.25-0.75 -0.25-1.5q0-1.036 0.482-1.946q 1.018,0 1.804,0.348t 1.804,1.080q 1.357-0.321 3.018-0.321q 1.429,0 2.732,0.286q 1.018-0.714 1.795-1.054t 1.777-0.339q 0.482,0.911 0.482,1.946q0,0.768 -0.25,1.482q 1.304,1.464 1.304,3.554 q0,2.804 -1.429,4.027t-4.375,1.491q 1.232,0.839 1.232,2.339l0,4.036 q 3.554-1.107 5.777-4.134t 2.223-6.759zM 27.429,16q0,3.732 -1.839,6.884t-4.991,4.991t-6.884,1.839t-6.884-1.839t-4.991-4.991t-1.839-6.884t 1.839-6.884t 4.991-4.991t 6.884-1.839t 6.884,1.839t 4.991,4.991t 1.839,6.884z"></path></g></svg>